<?xml version="1.0"?>
<svg width="256" height="256" xmlns="http://www.w3.org/2000/svg" xmlns:svg="http://www.w3.org/2000/svg" version="1.1" xml:space="preserve">

 <g class="layer">
  <title>Layer 1</title>
  <g fill="none" fill-rule="nonzero" id="svg_1" stroke-miterlimit="10" stroke-width="0" transform="translate(1.40659, 1.40659) matrix(2.81, 0, 0, 2.81, 0, 0)">
   <path d="m64.71,90l-39.42,0c-4.69,0 -8.58,-3.67 -8.86,-8.36l-3.93,-67.08c-0.04,-0.83 0.25,-1.64 0.82,-2.24c0.56,-0.6 1.35,-0.94 2.18,-0.94l59,0c0.83,0 1.62,0.34 2.18,0.94c0.57,0.6 0.86,1.41 0.82,2.24l-3.93,67.09c-0.28,4.68 -4.17,8.35 -8.86,8.35zm-46.03,-72.62l3.74,63.91c0.09,1.52 1.35,2.71 2.87,2.71l39.42,0c1.52,0 2.78,-1.19 2.87,-2.7l3.74,-63.92l-52.64,0z" fill="#c92222" fill-rule="nonzero" id="svg_2" stroke-miterlimit="10" transform=" matrix(1 0 0 1 0 0) "/>
   <path d="m80.7,17.38l-71.4,0c-1.65,0 -3,-1.34 -3,-3s1.35,-3 3,-3l71.4,0c1.65,0 3,1.34 3,3s-1.35,3 -3,3z" fill="#c92222" fill-rule="nonzero" id="svg_3" stroke-miterlimit="10" transform=" matrix(1 0 0 1 0 0) "/>
   <path d="m58.73,17.38l-27.46,0c-1.66,0 -3,-1.34 -3,-3l0,-5.59c0,-4.85 3.94,-8.79 8.79,-8.79l15.88,0c4.85,0 8.79,3.94 8.79,8.79l0,5.59c0,1.66 -1.34,3 -3,3zm-24.46,-6l21.46,0l0,-2.59c0,-1.54 -1.25,-2.79 -2.79,-2.79l-15.88,0c-1.54,0 -2.79,1.25 -2.79,2.79l0,2.59z" fill="#c92222" fill-rule="nonzero" id="svg_4" stroke-miterlimit="10" transform=" matrix(1 0 0 1 0 0) "/>
   <path d="m58.33,74.99c-0.06,0 -0.12,0 -0.18,0c-1.65,-0.1 -2.92,-1.52 -2.82,-3.18l2.48,-42.24c0.09,-1.65 1.5,-2.93 3.17,-2.82c1.65,0.1 2.91,1.52 2.82,3.17l-2.48,42.25c-0.09,1.59 -1.41,2.82 -2.99,2.82z" fill="#c92222" fill-rule="nonzero" id="svg_5" stroke-miterlimit="10" transform=" matrix(1 0 0 1 0 0) "/>
   <path d="m31.67,74.99c-1.58,0 -2.9,-1.23 -2.99,-2.82l-2.48,-42.25c-0.09,-1.65 1.17,-3.07 2.82,-3.17c1.65,-0.11 3.08,1.17 3.17,2.82l2.48,42.24c0.09,1.66 -1.17,3.08 -2.82,3.18c-0.06,0 -0.12,0 -0.18,0z" fill="#c92222" fill-rule="nonzero" id="svg_6" stroke-miterlimit="10" transform=" matrix(1 0 0 1 0 0) "/>
   <path d="m45,74.99c-1.66,0 -3,-1.34 -3,-3l0,-42.24c0,-1.66 1.34,-3 3,-3c1.66,0 3,1.34 3,3l0,42.24c0,1.66 -1.34,3 -3,3z" fill="#c92222" fill-rule="nonzero" id="svg_7" stroke-miterlimit="10" transform=" matrix(1 0 0 1 0 0) "/>
  </g>
 </g>
</svg>